<?xml version="1.0" encoding="utf-8"?>
<!-- Generator: Adobe Illustrator 26.3.1, SVG Export Plug-In . SVG Version: 6.00 Build 0)  -->
<svg version="1.1" id="Layer_1" xmlns="http://www.w3.org/2000/svg" xmlns:xlink="http://www.w3.org/1999/xlink" x="0px" y="0px"
	 width="100px" height="30px" viewBox="0 0 100 30" style="enable-background:new 0 0 100 30;" xml:space="preserve">
<style type="text/css">
	.st0{fill:#13AAE0;}
	.st1{fill:#28AA58;}
	.st2{fill:#E7353F;}
	.st3{fill:#020203;}
</style>
<g>
	<path class="st0" d="M83.9,2.5c2.7,0,4.9,1.7,5.6,4.3c0.1,0.5,0.2,1,0.2,1.5c0,1.4,0,2.9,0,4.3c0,0.2,0,0.4,0,0.7
		c3.5-1.8,6.9-3.6,10.3-5.4c0,7.4,0,14.7,0,22c-0.1,0-0.2-0.1-0.3-0.1c-4.1-2.2-8.2-4.3-12.4-6.5c-0.9-0.5-1.2-1.5-0.8-2.3
		c0.4-0.8,1.4-1.1,2.3-0.6c2.4,1.2,4.8,2.5,7.1,3.8c0.2,0.1,0.4,0.2,0.6,0.3c0-3.6,0-7.2,0-10.8c-0.3,0.1-0.5,0.2-0.7,0.3
		c-2.3,1.2-4.6,2.4-6.9,3.7c-1.5,0.8-2.8-0.3-2.7-1.7c0.1-2.5,0-5,0-7.5c0-1.6-1-2.6-2.6-2.6c-6.3,0-53.6,0-59.9,0
		c-0.2,0-0.4,0-0.6,0c0-1.1,0-2.2,0-3.4"/>
	<path class="st1" d="M10.6,2.6c0,0.6-0.1,1.2-0.1,1.7c0,0.5,0.1,1.1,0.1,1.6c-0.2,0-0.3,0-0.5,0c-1.4,0-2.7,0-4.1,0
		c-1.6,0-2.6,1-2.6,2.6c0,2.5,0,5.1,0,7.6c0,0.8-0.4,1.4-1.1,1.7c-1.1,0.4-2.3-0.4-2.3-1.5c0-2.7-0.1-5.5,0-8.2
		c0.1-3,2.6-5.4,5.6-5.5c1.5,0,3,0,4.5,0C10.3,2.5,10.5,2.5,10.6,2.6z"/>
	<path class="st2" d="M16.8,8.4c-2.3-0.1-4.2-2-4.1-4.3C12.7,1.8,14.6,0,17,0c2.1,0,4.1,1.8,4,4.5C21,6.6,19.1,8.5,16.8,8.4z"/>
	<path class="st3" d="M23.5,17.7c0,0.2-0.1,0.4-0.4,0.4h-1.6V24c0,1.5-0.4,2.1-1,2.1h-0.6c-0.3,0-0.4-0.1-0.4-0.4V22
		c-0.3,0.2-0.6,0.4-1.1,0.5c-1.6,0.3-4.4,0.4-6.2,0.3c-1.2-0.1-1.8-0.6-1.8-1.8v-4c0-0.2,0.1-0.4,0.4-0.4h4.9V14h-3.4
		c-1.3,0-1.8-0.3-1.8-1v-0.3c0-0.3,0.1-0.4,0.4-0.4h6.5c0.3,0,0.4,0.2,0.4,0.4v5c0,0.2-0.1,0.4-0.4,0.4h-4.9v2.5
		c0,0.3,0.1,0.4,0.4,0.5c1.4,0.1,3.8,0.1,5.3-0.2c0.9-0.2,1.3-0.5,1.3-1.3v-7.2c0-0.2,0.1-0.4,0.4-0.4h1.3c0.3,0,0.4,0.2,0.4,0.4v4
		h1.6c0.3,0,0.4,0.2,0.4,0.4V17.7z"/>
	<path class="st3" d="M28.8,12.3c2.9,0,4.3,1.8,4.3,4.7c0,2.8-1.4,4.7-4.3,4.7s-4.3-1.8-4.3-4.7C24.5,14.1,26,12.3,28.8,12.3z
		 M28.8,13.9c-1.4,0-2.2,1-2.2,3c0,2.1,0.8,3,2.2,3c1.4,0,2.2-1,2.2-3C31.1,14.8,30.2,13.9,28.8,13.9z M34.4,12.4
		c0-0.2,0.1-0.4,0.4-0.4H36c0.3,0,0.4,0.2,0.4,0.4V24c0,1.5-0.4,2.1-1,2.1h-0.6c-0.3,0-0.4-0.1-0.4-0.4V12.4z"/>
	<path class="st3" d="M51.6,23.9c0,0.2-0.1,0.4-0.4,0.4H39.9c-1.3,0-1.8-0.3-1.8-1v-0.3c0-0.3,0.1-0.4,0.4-0.4h12.7
		c0.3,0,0.4,0.2,0.4,0.4V23.9z M47.7,16.3h-3.6c-1.3,0-1.8-0.3-1.8-1v-0.3c0-0.3,0.1-0.4,0.4-0.4h5v-1.9c0-0.2,0.1-0.4,0.4-0.4h1.3
		c0.3,0,0.4,0.2,0.4,0.4v6.9c0,0.2-0.1,0.4-0.4,0.4h-7.6c-1.3,0-2-0.6-2-1.8v-5.5c0-0.2,0.1-0.4,0.4-0.4h1.3c0.3,0,0.4,0.2,0.4,0.4
		V18c0,0.2,0.1,0.4,0.4,0.4h5.4V16.3z"/>
	<path class="st3" d="M58.7,21.9h-3.9c-1.3,0-1.8-0.3-1.8-1v-0.3c0-0.3,0.1-0.4,0.4-0.4h12.7c0.3,0,0.4,0.2,0.4,0.4v0.8
		c0,0.2-0.1,0.4-0.4,0.4h-5.3v2.4c0,1.5-0.4,2.1-1,2.1h-0.6c-0.3,0-0.4-0.1-0.4-0.4V21.9z M64.8,13.5c0,0.2-0.1,0.4-0.4,0.4h-7.6
		v0.9h7.5c0.3,0,0.4,0.2,0.4,0.4V16c0,0.2-0.1,0.4-0.4,0.4h-7.5V17c0,0.3,0.1,0.4,0.4,0.5c1.7,0.2,4.7,0.1,7.1-0.2
		c0.9-0.1,1.1,1.3,0.2,1.4c-2,0.4-5.8,0.6-8,0.3c-1.2-0.1-1.8-0.6-1.8-1.8v-3.5c-0.6-0.1-0.9-0.4-0.9-0.9v-0.3
		c0-0.3,0.1-0.4,0.4-0.4h10.2c0.3,0,0.4,0.2,0.4,0.4V13.5z"/>
	<path class="st3" d="M72,12.2c2.5,0,3.9,1.5,4.2,3.9h1.4v-3.7c0-0.2,0.1-0.4,0.4-0.4h1.3c0.3,0,0.4,0.2,0.4,0.4V24
		c0,1.5-0.4,2.1-1,2.1H78c-0.3,0-0.4-0.1-0.4-0.4v-7.9h-1.4c-0.3,2.4-1.6,3.9-4.2,3.9c-2.8,0-4.2-1.8-4.2-4.7
		C67.7,14,69.1,12.2,72,12.2z M72,13.9c-1.4,0-2.2,1-2.2,3.1c0,2.1,0.8,3.1,2.2,3.1c1.4,0,2.2-1,2.2-3.1
		C74.1,14.8,73.3,13.9,72,13.9z"/>
</g>
</svg>
