<?xml version="1.0" encoding="utf-8"?>
<!-- Generator: Adobe Illustrator 26.3.1, SVG Export Plug-In . SVG Version: 6.00 Build 0)  -->
<svg version="1.1" id="Layer_1" xmlns="http://www.w3.org/2000/svg" xmlns:xlink="http://www.w3.org/1999/xlink" x="0px" y="0px"
	 width="16px" height="16px" viewBox="0 0 16 16" style="enable-background:new 0 0 16 16;" xml:space="preserve">
<style type="text/css">
	.st0{fill:none;stroke:#FFFFFF;stroke-linecap:round;stroke-linejoin:round;stroke-miterlimit:10;}
</style>
<g>
	<path class="st0" d="M7.7,1.4v4.3c0,0.5-0.3,1-0.8,1.2l0,0C6.4,7.1,6,7.6,6,8.1v5.6c0,0.3-0.3,0.6-0.6,0.6l0,0
		c-0.3,0-0.6-0.3-0.6-0.6V8.1c0-0.5-0.3-1-0.8-1.2l0,0C3.6,6.8,3.2,6.3,3.2,5.7V1.4"/>
	<line class="st0" x1="5.5" y1="1.4" x2="5.5" y2="5.9"/>
	<path class="st0" d="M11.7,1.4L11.7,1.4c-0.9,0-1.7,0.8-1.7,1.7v4.2c0,0.5,0.6,1,1.1,1.2l0,0v5.3c0,0.3,0.2,0.5,0.5,0.6
		c0.4,0.1,0.7-0.2,0.7-0.6V8.5V2C12.3,1.7,12,1.4,11.7,1.4z"/>
</g>
</svg>
