<?xml version="1.0" encoding="utf-8"?>
<!-- Generator: Adobe Illustrator 26.3.1, SVG Export Plug-In . SVG Version: 6.00 Build 0)  -->
<svg version="1.1" id="Layer_1" xmlns="http://www.w3.org/2000/svg" xmlns:xlink="http://www.w3.org/1999/xlink" x="0px" y="0px"
	 width="16px" height="16px" viewBox="0 0 16 16" style="enable-background:new 0 0 16 16;" xml:space="preserve">
<style type="text/css">
	.st0{fill:#FFFFFF;stroke:#FFFFFF;stroke-width:0.25;stroke-miterlimit:10;}
</style>
<g id="bedroom_00000167395907408681860810000003495314821222305410_">
	<path class="st0" d="M14.4,8.7H1.5c-0.6,0-1.2,0.5-1.2,1.2v3c0,0.1,0.1,0.3,0.3,0.3h14.9c0.1,0,0.3-0.1,0.3-0.3v-3
		C15.6,9.2,15.1,8.7,14.4,8.7z M15.1,12.7H0.8V9.9c0-0.4,0.3-0.7,0.7-0.7h12.9c0.4,0,0.7,0.3,0.7,0.7V12.7z"/>
	<path class="st0" d="M13.4,7c-0.1-0.1-0.1-0.1-0.2-0.1H2.7C2.7,6.9,2.6,7,2.5,7L1.1,8.8l0.4,0.3l1.3-1.7h10.3l1.3,1.7l0.4-0.3
		L13.4,7z"/>
	<path class="st0" d="M14,1.5h-1c-0.1,0-0.3,0.1-0.3,0.3v0.6C12.1,1.9,10.6,1,8,1C5.6,1.1,3.9,2,3.2,2.5V1.8c0-0.1-0.1-0.3-0.3-0.3
		H2c-0.1,0-0.3,0.1-0.3,0.3V8c0,0.1,0.1,0.3,0.3,0.3S2.2,8.2,2.2,8V2h0.5v1c0,0.1,0.1,0.2,0.1,0.2c0.1,0.1,0.2,0,0.3-0.1
		c0,0,1.9-1.6,4.9-1.6c3.5,0,4.9,1.6,4.9,1.6c0.1,0.1,0.2,0.1,0.3,0.1c0.1-0.1,0.1-0.1,0.1-0.3V2h0.5v6c0,0.1,0.1,0.3,0.3,0.3
		c0.1,0,0.3-0.1,0.3-0.3V1.8C14.2,1.6,14.1,1.5,14,1.5z"/>
	<g>
		<path class="st0" d="M7,5H3.6C3.6,5,3.5,5.1,3.4,5.2c0,0-0.3,0.5-0.3,1.1c0,0.5,0.3,1,0.3,1.1c0.1,0.1,0.1,0.1,0.2,0.1H7
			c0.1,0,0.2-0.1,0.2-0.1c0,0,0.3-0.5,0.3-1.1c0-0.5-0.3-1-0.3-1.1C7.2,5.1,7.1,5,7,5z M6.9,6.9H3.8C3.7,6.8,3.6,6.5,3.6,6.2
			c0-0.3,0.1-0.6,0.1-0.7h3.1C6.9,5.7,6.9,6,6.9,6.2C7,6.5,6.9,6.8,6.9,6.9z"/>
		<path class="st0" d="M12.5,5.2C12.4,5.1,12.4,5,12.3,5H9C8.9,5,8.8,5.1,8.8,5.2c0,0-0.3,0.5-0.3,1.1c0,0.5,0.3,1,0.3,1.1
			C8.9,7.4,8.9,7.5,9,7.5h3.3c0.1,0,0.2-0.1,0.2-0.1c0,0,0.3-0.5,0.3-1.1C12.8,5.7,12.5,5.2,12.5,5.2z M12.1,6.9H9.1
			C9,6.8,8.9,6.5,8.9,6.2C8.9,6,9,5.7,9.1,5.5h3.1c0.1,0.2,0.1,0.4,0.1,0.7C12.3,6.5,12.2,6.8,12.1,6.9z"/>
	</g>
	<g>
		<path class="st0" d="M2.7,12.7H1.5c-0.1,0-0.3,0.1-0.3,0.3v1.2c0,0.4,0.4,0.8,0.8,0.8s0.8-0.4,0.8-0.8V13
			C2.9,12.8,2.9,12.7,2.7,12.7z M2.5,14.1c0,0.2-0.2,0.4-0.4,0.4s-0.4-0.2-0.4-0.4v-1h0.7L2.5,14.1L2.5,14.1z"/>
		<path class="st0" d="M14.4,12.7h-1.2c-0.1,0-0.3,0.1-0.3,0.3v1.2c0,0.4,0.4,0.8,0.8,0.8c0.4,0,0.8-0.4,0.8-0.8V13
			C14.7,12.8,14.6,12.7,14.4,12.7z M14.2,14.1c0,0.2-0.2,0.4-0.4,0.4c-0.2,0-0.4-0.2-0.4-0.4v-1h0.7L14.2,14.1L14.2,14.1z"/>
	</g>
</g>
</svg>
