<?xml version="1.0" encoding="utf-8"?>
<!-- Generator: Adobe Illustrator 26.3.1, SVG Export Plug-In . SVG Version: 6.00 Build 0)  -->
<svg version="1.1" id="Layer_1" xmlns="http://www.w3.org/2000/svg" xmlns:xlink="http://www.w3.org/1999/xlink" x="0px" y="0px"
	 width="91px" height="27px" viewBox="0 0 91 27" style="enable-background:new 0 0 91 27;" xml:space="preserve">
<style type="text/css">
	.st0{fill:#13AAE0;}
	.st1{fill:#28AA58;}
	.st2{fill:#E7353F;}
	.st3{fill:#020203;}
</style>
<g>
	<path class="st0" d="M76.1,2.3c2.5,0,4.4,1.5,5.1,3.9c0.1,0.4,0.2,0.9,0.2,1.4c0,1.3,0,2.6,0,3.9c0,0.2,0,0.3,0,0.6
		c3.1-1.7,6.2-3.3,9.3-4.9c0,6.6,0,13.2,0,19.8c-0.1,0-0.2-0.1-0.3-0.1c-3.7-2-7.4-3.9-11.2-5.9c-0.8-0.4-1.1-1.3-0.7-2.1
		c0.4-0.7,1.3-1,2.1-0.6c2.2,1.1,4.3,2.3,6.4,3.4c0.2,0.1,0.3,0.2,0.6,0.3c0-3.3,0-6.5,0-9.7c-0.2,0.1-0.4,0.2-0.6,0.3
		c-2.1,1.1-4.2,2.2-6.2,3.3c-1.3,0.7-2.5-0.3-2.4-1.5c0.1-2.2,0-4.5,0-6.7c0-1.4-0.9-2.3-2.3-2.3c-5.7,0-48.4,0-54,0
		c-0.2,0-0.4,0-0.5,0c0-1,0-2,0-3"/>
	<path class="st1" d="M10,2.3c0,0.5-0.1,1-0.1,1.5c0,0.5,0.1,0.9,0.1,1.5c-0.1,0-0.3,0-0.4,0c-1.2,0-2.4,0-3.7,0
		c-1.4,0-2.3,0.9-2.4,2.3c0,2.3,0,4.6,0,6.9c0,0.7-0.4,1.3-1,1.5c-1,0.4-2-0.3-2-1.4c0-2.5-0.1-5,0-7.4c0.1-2.7,2.3-4.9,5.1-4.9
		c1.4,0,2.7,0,4.1,0C9.8,2.3,9.9,2.3,10,2.3z"/>
	<path class="st2" d="M15.7,7.6c-2.1,0-3.8-1.8-3.7-3.9C12,1.6,13.7,0,15.8,0c1.9,0,3.7,1.6,3.6,4C19.4,6,17.7,7.6,15.7,7.6z"/>
	<path class="st3" d="M21.7,15.9c0,0.2-0.1,0.4-0.3,0.4h-1.5v5.3c0,1.4-0.3,1.9-0.9,1.9h-0.6c-0.2,0-0.3-0.1-0.3-0.4v-3.3
		c-0.2,0.2-0.5,0.4-1,0.5c-1.4,0.3-4,0.4-5.6,0.2c-1.1-0.1-1.6-0.5-1.6-1.6v-3.6c0-0.2,0.1-0.4,0.3-0.4h4.4v-2.3h-3.1
		c-1.1,0-1.6-0.3-1.6-0.9v-0.3c0-0.2,0.1-0.3,0.4-0.3h5.9c0.2,0,0.3,0.1,0.3,0.4V16c0,0.2-0.1,0.4-0.3,0.4h-4.4v2.2
		c0,0.3,0.1,0.4,0.4,0.4c1.2,0.1,3.5,0.1,4.8-0.1c0.8-0.1,1.2-0.5,1.2-1.2v-6.5c0-0.2,0.1-0.4,0.3-0.4h1.2c0.2,0,0.3,0.1,0.3,0.4
		v3.6h1.5c0.2,0,0.3,0.1,0.3,0.4V15.9z"/>
	<path class="st3" d="M26.5,11c2.6,0,3.9,1.6,3.9,4.2c0,2.6-1.3,4.2-3.9,4.2s-3.9-1.6-3.9-4.2C22.6,12.7,23.9,11,26.5,11z
		 M26.5,12.5c-1.2,0-2,0.9-2,2.7c0,1.9,0.8,2.7,2,2.7c1.2,0,2-0.9,2-2.7C28.5,13.4,27.7,12.5,26.5,12.5z M31.5,11.2
		c0-0.2,0.1-0.4,0.3-0.4H33c0.2,0,0.3,0.1,0.3,0.4v10.4c0,1.4-0.3,1.9-0.9,1.9h-0.6c-0.2,0-0.3-0.1-0.3-0.4V11.2z"/>
	<path class="st3" d="M47,21.5c0,0.2-0.1,0.4-0.3,0.4H36.5c-1.1,0-1.6-0.3-1.6-0.9v-0.3c0-0.2,0.1-0.3,0.4-0.3h11.4
		c0.2,0,0.3,0.1,0.3,0.4V21.5z M43.5,14.7h-3.2c-1.1,0-1.6-0.3-1.6-0.9v-0.3c0-0.2,0.1-0.3,0.4-0.3h4.5v-1.7c0-0.2,0.1-0.4,0.3-0.4
		H45c0.2,0,0.3,0.1,0.3,0.4v6.2c0,0.2-0.1,0.4-0.3,0.4h-6.8c-1.2,0-1.8-0.5-1.8-1.6v-5c0-0.2,0.1-0.4,0.3-0.4H38
		c0.2,0,0.3,0.1,0.3,0.4v4.7c0,0.2,0.1,0.4,0.3,0.4h4.9V14.7z"/>
	<path class="st3" d="M53.4,19.8h-3.5c-1.1,0-1.6-0.3-1.6-0.9v-0.3c0-0.2,0.1-0.3,0.4-0.3h11.4c0.2,0,0.3,0.1,0.3,0.4v0.7
		c0,0.2-0.1,0.4-0.3,0.4h-4.8v2.1c0,1.4-0.3,1.9-0.9,1.9h-0.6c-0.2,0-0.3-0.1-0.3-0.4V19.8z M58.9,12.1c0,0.2-0.1,0.4-0.3,0.4h-6.9
		v0.8h6.7c0.2,0,0.3,0.1,0.3,0.4v0.7c0,0.2-0.1,0.4-0.3,0.4h-6.7v0.5c0,0.3,0.1,0.4,0.4,0.4c1.5,0.2,4.3,0.1,6.4-0.1
		c0.8-0.1,1,1.2,0.2,1.3c-1.8,0.4-5.3,0.5-7.2,0.3c-1.1-0.1-1.6-0.5-1.6-1.6v-3.1C49.3,12.3,49,12,49,11.6v-0.3
		c0-0.2,0.1-0.3,0.4-0.3h9.2c0.2,0,0.3,0.1,0.3,0.4V12.1z"/>
	<path class="st3" d="M65.4,11c2.3,0,3.5,1.3,3.8,3.5h1.3v-3.3c0-0.2,0.1-0.4,0.3-0.4h1.2c0.2,0,0.3,0.1,0.3,0.4v10.4
		c0,1.4-0.3,1.9-0.9,1.9h-0.6c-0.2,0-0.3-0.1-0.3-0.4V16h-1.3c-0.2,2.2-1.5,3.5-3.8,3.5c-2.5,0-3.8-1.6-3.8-4.2
		C61.6,12.7,62.8,11,65.4,11z M65.4,12.5c-1.2,0-2,0.9-2,2.8c0,1.9,0.7,2.8,2,2.8c1.2,0,2-0.9,2-2.8C67.3,13.4,66.6,12.5,65.4,12.5z
		"/>
</g>
</svg>
