<?xml version="1.0" encoding="utf-8"?>
<!-- Generator: Adobe Illustrator 26.3.1, SVG Export Plug-In . SVG Version: 6.00 Build 0)  -->
<svg version="1.1" id="레이어_1" xmlns="http://www.w3.org/2000/svg" xmlns:xlink="http://www.w3.org/1999/xlink" x="0px"
	 y="0px" width="100px" height="70px" viewBox="0 0 100 70" style="enable-background:new 0 0 100 70;" xml:space="preserve">
<style type="text/css">
	.st0{fill:#0DA9DF;}
	.st1{fill:#26A958;}
	.st2{fill:#E6343F;}
</style>
<g>
	<path class="st0" d="M83.9,37.5c2.7,0,4.9,1.7,5.6,4.3c0.1,0.5,0.2,1,0.2,1.5c0,1.4,0,2.9,0,4.3c0,0.2,0,0.4,0,0.7
		c3.5-1.8,6.9-3.6,10.3-5.4c0,7.4,0,14.7,0,22c-0.1,0-0.2-0.1-0.3-0.1c-4.1-2.2-8.2-4.3-12.4-6.5c-0.9-0.5-1.2-1.5-0.8-2.3
		c0.4-0.8,1.4-1.1,2.3-0.6c2.4,1.2,4.8,2.5,7.1,3.8c0.2,0.1,0.4,0.2,0.6,0.3c0-3.6,0-7.2,0-10.8c-0.3,0.1-0.5,0.2-0.7,0.3
		c-2.3,1.2-4.6,2.4-6.9,3.7c-1.5,0.8-2.8-0.3-2.7-1.7c0.1-2.5,0-5,0-7.5c0-1.6-1-2.6-2.6-2.6c-6.3,0-53.6,0-59.9,0
		c-0.2,0-0.4,0-0.6,0c0-1.1,0-2.2,0-3.4"/>
	<path class="st1" d="M10.6,37.5c0,0.6-0.1,1.2-0.1,1.7c0,0.5,0.1,1.1,0.1,1.6c-0.2,0-0.3,0-0.5,0c-1.4,0-2.7,0-4.1,0
		c-1.6,0-2.6,1-2.6,2.6c0,2.5,0,5.1,0,7.6c0,0.8-0.4,1.4-1.1,1.7c-1.1,0.4-2.3-0.4-2.3-1.5C0,48.5,0,45.7,0,43
		c0.1-3,2.6-5.4,5.6-5.5c1.5,0,3,0,4.5,0C10.3,37.5,10.4,37.5,10.6,37.5z"/>
	<path class="st2" d="M16.8,43.4c-2.3-0.1-4.2-2-4.1-4.3c0.1-2.4,2-4.2,4.4-4.1c2.1,0,4.1,1.8,4,4.5C21,41.6,19,43.5,16.8,43.4z"/>
	<path d="M23.5,52.6c0,0.2-0.1,0.4-0.4,0.4h-1.6V59c0,1.5-0.4,2.1-1,2.1h-0.6c-0.3,0-0.4-0.1-0.4-0.4V57c-0.3,0.2-0.6,0.4-1.1,0.5
		c-1.6,0.3-4.4,0.4-6.2,0.3c-1.2-0.1-1.8-0.6-1.8-1.8v-4c0-0.2,0.1-0.4,0.4-0.4h4.9V49h-3.4c-1.3,0-1.8-0.3-1.8-1v-0.3
		c0-0.3,0.1-0.4,0.4-0.4h6.5c0.3,0,0.4,0.2,0.4,0.4v5c0,0.2-0.1,0.4-0.4,0.4h-4.9v2.5c0,0.3,0.1,0.4,0.4,0.5
		c1.4,0.1,3.8,0.1,5.3-0.2c0.9-0.2,1.3-0.5,1.3-1.3v-7.2c0-0.2,0.1-0.4,0.4-0.4h1.3c0.3,0,0.4,0.2,0.4,0.4v4h1.6
		c0.3,0,0.4,0.2,0.4,0.4V52.6z"/>
	<path d="M28.8,47.2c2.9,0,4.3,1.8,4.3,4.7c0,2.8-1.4,4.7-4.3,4.7s-4.3-1.8-4.3-4.7C24.5,49.1,26,47.2,28.8,47.2z M28.8,48.9
		c-1.4,0-2.2,1-2.2,3c0,2.1,0.8,3,2.2,3c1.4,0,2.2-1,2.2-3C31.1,49.8,30.2,48.9,28.8,48.9z M34.3,47.4c0-0.2,0.1-0.4,0.4-0.4H36
		c0.3,0,0.4,0.2,0.4,0.4V59c0,1.5-0.4,2.1-1,2.1h-0.6c-0.3,0-0.4-0.1-0.4-0.4V47.4z"/>
	<path d="M51.6,58.9c0,0.2-0.1,0.4-0.4,0.4H39.9c-1.3,0-1.8-0.3-1.8-1V58c0-0.3,0.1-0.4,0.4-0.4h12.7c0.3,0,0.4,0.2,0.4,0.4V58.9z
		 M47.7,51.3h-3.6c-1.3,0-1.8-0.3-1.8-1v-0.3c0-0.3,0.1-0.4,0.4-0.4h5v-1.9c0-0.2,0.1-0.4,0.4-0.4h1.3c0.3,0,0.4,0.2,0.4,0.4v6.9
		c0,0.2-0.1,0.4-0.4,0.4h-7.6c-1.3,0-2-0.6-2-1.8v-5.5c0-0.2,0.1-0.4,0.4-0.4h1.3c0.3,0,0.4,0.2,0.4,0.4V53c0,0.2,0.1,0.4,0.4,0.4
		h5.4V51.3z"/>
	<path d="M58.7,56.9h-3.9c-1.3,0-1.8-0.3-1.8-1v-0.3c0-0.3,0.1-0.4,0.4-0.4h12.7c0.3,0,0.4,0.2,0.4,0.4v0.8c0,0.2-0.1,0.4-0.4,0.4
		h-5.3v2.4c0,1.5-0.4,2.1-1,2.1h-0.6c-0.3,0-0.4-0.1-0.4-0.4V56.9z M64.8,48.5c0,0.2-0.1,0.4-0.4,0.4h-7.6v0.9h7.5
		c0.3,0,0.4,0.2,0.4,0.4V51c0,0.2-0.1,0.4-0.4,0.4h-7.5V52c0,0.3,0.1,0.4,0.4,0.5c1.7,0.2,4.7,0.1,7.1-0.2c0.9-0.1,1.1,1.3,0.2,1.4
		c-2,0.4-5.8,0.6-8,0.3c-1.2-0.1-1.8-0.6-1.8-1.8v-3.5c-0.6-0.1-0.9-0.4-0.9-0.9v-0.3c0-0.3,0.1-0.4,0.4-0.4h10.2
		c0.3,0,0.4,0.2,0.4,0.4V48.5z"/>
	<path d="M72,47.2c2.5,0,3.9,1.5,4.2,3.9h1.4v-3.7c0-0.2,0.1-0.4,0.4-0.4h1.3c0.3,0,0.4,0.2,0.4,0.4V59c0,1.5-0.4,2.1-1,2.1H78
		c-0.3,0-0.4-0.1-0.4-0.4v-7.9h-1.4c-0.3,2.4-1.6,3.9-4.2,3.9c-2.8,0-4.2-1.8-4.2-4.7C67.7,49,69.1,47.2,72,47.2z M72,48.8
		c-1.4,0-2.2,1-2.2,3.1c0,2.1,0.8,3.1,2.2,3.1c1.4,0,2.2-1,2.2-3.1C74.1,49.8,73.3,48.8,72,48.8z"/>
</g>
<g>
	<path d="M5.4,14.8h9.7v0.8H5.4V14.8z M14.6,11.8l-0.4,0.8c-1.6-0.4-3.3-1.5-4-3c-0.7,1.5-2.4,2.7-4,3l-0.4-0.8
		C7.7,11.4,9.7,9.8,9.7,8V7.2h1V8C10.7,9.8,12.8,11.4,14.6,11.8z"/>
	<path d="M20.3,14.3h-4.9V7.5h4.9V14.3z M19.4,13.5V8.3h-3v5.3H19.4z M22.3,6.4h0.9v4.2H25v0.8h-1.8V17h-0.9V6.4z"/>
	<path d="M24.6,14.8h9.7v0.8h-9.7V14.8z M33.2,12.9h-7.3V7.4H33v0.8h-6.2v1.6h6v0.7h-6v1.7h6.3V12.9z"/>
	<path d="M34.2,7.7h2.7V6.5h0.9v1.3h2.7v0.8h-6.3V7.7z M37.4,9.1c1.5,0,2.5,0.8,2.5,2c0,1.2-1,2-2.5,1.9c-1.5,0-2.5-0.8-2.5-1.9
		C34.8,9.9,35.8,9.1,37.4,9.1z M37.4,12.3c1,0,1.6-0.5,1.7-1.2c0-0.8-0.7-1.2-1.7-1.2c-1,0-1.7,0.5-1.6,1.2
		C35.7,11.8,36.4,12.3,37.4,12.3z M35.8,13.7h0.9V16h6.2v0.8h-7.1V13.7z M42.4,9.9H44v0.8h-1.6v3.6h-0.9V6.5h0.9V9.9z"/>
	<path d="M46.3,7.4h4.8v3.8h-3.8v2.5c2,0,3.3-0.1,4.9-0.4l0.1,0.8c-1.7,0.3-3.1,0.4-5.1,0.4h-0.8v-4h3.8V8.2h-3.9V7.4z M54.1,10.6
		h1.8v0.8h-1.8V17h-0.9V6.4h0.9V10.6z"/>
	<path d="M58.6,7.3c1.6,0,2.7,1.4,2.7,3.7c0,2.2-1.1,3.7-2.7,3.7c-1.6,0-2.7-1.4-2.7-3.7C55.9,8.7,57,7.3,58.6,7.3z M58.6,13.8
		c1.1,0,1.8-1.1,1.8-2.8s-0.7-2.8-1.8-2.8c-1.1,0-1.8,1.1-1.8,2.8S57.5,13.8,58.6,13.8z M64.2,17h-0.9V6.4h0.9V17z"/>
	<path d="M74.8,15.6h-9.7v-0.8h9.7V15.6z M66.2,7.2h0.9v2h5.5v-2h0.9v5.5h-7.3V7.2z M72.7,11.9v-2h-5.5v2H72.7z"/>
	<path d="M81.9,8.8h2.8V6.4h0.9V17h-0.9v-4.1h-2.7c-0.4,1.1-1.3,1.7-2.3,1.7c-1.6,0-2.7-1.4-2.6-3.7c0-2.2,1.1-3.7,2.6-3.7
		C80.6,7.3,81.4,7.8,81.9,8.8z M79.7,13.8c1,0,1.8-1.1,1.8-2.8s-0.7-2.8-1.8-2.8c-1,0-1.7,1.1-1.8,2.8
		C77.9,12.6,78.6,13.8,79.7,13.8z M82.3,10.9c0,0.4,0,0.8-0.1,1.2h2.5V9.6h-2.5C82.2,10,82.3,10.4,82.3,10.9z"/>
	<path d="M86.4,7.7h2.3V6.5h0.9v1.2h2.2v0.7h-5.4V7.7z M89.1,9c1.3,0,2.3,0.7,2.3,1.8c0,1.1-0.9,1.8-2.3,1.8c-1.3,0-2.3-0.7-2.3-1.8
		C86.8,9.7,87.7,9,89.1,9z M89.1,11.9c0.8,0,1.4-0.4,1.4-1.1c0-0.7-0.6-1.1-1.4-1.1s-1.4,0.4-1.4,1.1C87.7,11.5,88.2,11.9,89.1,11.9
		z M91.9,13.3c2.2,0,3.5,0.7,3.5,1.9c0,1.2-1.3,1.8-3.5,1.8c-2.2,0-3.5-0.7-3.5-1.8C88.3,14,89.7,13.3,91.9,13.3z M91.9,16.2
		c1.6,0,2.6-0.4,2.6-1.1c0-0.7-1-1.1-2.6-1.1c-1.6,0-2.6,0.4-2.6,1.1C89.3,15.8,90.2,16.2,91.9,16.2z M95.4,13.1h-0.9v-3h-1.4v2.6
		h-0.9V6.7h0.9v2.7h1.4V6.4h0.9V13.1z"/>
</g>
</svg>
