<?xml version="1.0" encoding="utf-8"?>
<!-- Generator: Adobe Illustrator 26.3.1, SVG Export Plug-In . SVG Version: 6.00 Build 0)  -->
<svg version="1.1" id="Layer_1" xmlns="http://www.w3.org/2000/svg" xmlns:xlink="http://www.w3.org/1999/xlink" x="0px" y="0px"
	 width="20px" height="20px" viewBox="0 0 20 20" style="enable-background:new 0 0 20 20;" xml:space="preserve">
<style type="text/css">
	.st0{fill:none;stroke:#333333;stroke-linecap:round;stroke-linejoin:round;stroke-miterlimit:10;}
</style>
<g id="map_00000158709276618591158600000001011178556587224745_">
	<path class="st0" d="M2.5,3.6v11c0,0.2,0.1,0.5,0.4,0.6l4.5,2.3c0.2,0.1,0.4,0.1,0.6,0l4-2.3c0.2-0.1,0.4-0.1,0.6,0l4,2
		c0.4,0.2,0.9-0.1,0.9-0.6V5c0-0.3-0.2-0.5-0.4-0.6l-4.5-1.7c-0.2-0.1-0.3-0.1-0.5,0L8,4.5c-0.2,0.1-0.3,0.1-0.5,0L3.4,3
		C3,2.8,2.5,3.1,2.5,3.6z"/>
	<line class="st0" x1="7.7" y1="17.6" x2="7.7" y2="4.6"/>
	<line class="st0" x1="12.3" y1="15" x2="12.3" y2="2.6"/>
</g>
</svg>
