<?xml version="1.0" encoding="utf-8"?>
<!-- Generator: Adobe Illustrator 26.3.1, SVG Export Plug-In . SVG Version: 6.00 Build 0)  -->
<svg version="1.1" id="Layer_1" xmlns="http://www.w3.org/2000/svg" xmlns:xlink="http://www.w3.org/1999/xlink" x="0px" y="0px"
	 width="20px" height="20px" viewBox="0 0 20 20" style="enable-background:new 0 0 20 20;" xml:space="preserve">
<style type="text/css">
	.st0{fill:none;stroke:#13AAE0;stroke-linecap:round;stroke-linejoin:round;stroke-miterlimit:10;}
</style>
<g>
	<path class="st0" d="M12.8,5.9c0,1.5-1.3,2.8-2.9,2.6C8.5,8.4,7.5,7.1,7.5,5.7V5c0-1.4,1-2.6,2.4-2.8c1.6-0.1,2.9,1.1,2.9,2.6V5.9z
		"/>
	<path class="st0" d="M11.5,10.9L10.7,12c-0.3,0.3-0.7,0.3-1,0l-0.9-1.1c-0.4-0.4-1-0.6-1.5-0.4c-2.3,1-4,3.3-4.3,5.9
		c0,0.4,0.3,0.7,0.7,0.7h13.1c0.4,0,0.7-0.3,0.7-0.7c-0.3-2.7-2-4.9-4.3-5.9C12.5,10.3,11.9,10.5,11.5,10.9z"/>
</g>
</svg>
